<svg id="Layer_1" data-name="Layer 1" xmlns="http://www.w3.org/2000/svg" viewBox="0 0 447.86 450"><defs><style>.cls-1{fill:#25d366;}.cls-2{fill:#fff;}</style></defs><path class="cls-1" d="M434.76,223.06c0,126.09-116.35,203-209.89,209.89-15.57,1.14-79.44,3.94-135.29-37.79-6.64-5-43.73,26.8-50,20.5-7.48-7.45,16.6-52.55,11-60.43C11.13,300.07,13.88,238.15,15,223.06,21.82,129.45,98.81,13.17,224.87,13.17,340.79,13.17,434.76,107.14,434.76,223.06Z"/><path class="cls-2" d="M0,450,31.63,334.44A222.46,222.46,0,0,1,1.88,223C1.93,100,102,0,224.87,0a223,223,0,0,1,223,223.16c-.05,123-100.09,223-223,223A223.2,223.2,0,0,1,118.22,419Zm123.69-71.38c31.43,18.66,61.43,29.83,101.1,29.85,102.15,0,185.37-83.14,185.42-185.35A185.28,185.28,0,0,0,224.94,37.65C122.72,37.65,39.56,120.79,39.53,223c0,41.72,12.2,73,32.73,105.64L53.53,397ZM337.2,276.17c-1.39-2.33-5.1-3.71-10.69-6.51s-33-16.27-38.08-18.13-8.81-2.79-12.54,2.8-14.4,18.13-17.65,21.84-6.5,4.18-12.07,1.39-23.53-8.67-44.81-27.66c-16.56-14.78-27.75-33-31-38.61s-.33-8.58,2.44-11.36c2.51-2.49,5.57-6.51,8.36-9.77s3.75-5.55,5.63-9.28.94-7-.47-9.77-12.54-30.2-17.18-41.36c-4.53-10.86-9.13-9.39-12.54-9.56L145.91,120a20.44,20.44,0,0,0-14.85,7c-5.1,5.59-19.5,19.06-19.5,46.49s20,53.92,22.75,57.63,39.28,60,95.17,84.13A322.91,322.91,0,0,0,261.24,327c13.35,4.24,25.5,3.64,35.1,2.21,10.71-1.59,33-13.48,37.62-26.49S338.61,278.49,337.2,276.17Z"/></svg>