<svg id="Layer_1" data-name="Layer 1" xmlns="http://www.w3.org/2000/svg" viewBox="0 0 400 556.36"><defs><style>.cls-1{fill:#7700a6;}.cls-2{fill:#fe00fe;}.cls-3{fill:#222;}</style></defs><polygon class="cls-1" points="247.49 0 0 0 0 556.36 400 556.36 400 152.52 247.49 0"/><path class="cls-2" d="M0,225.14V385.41l.75,0H369.43V225.12H.75Z"/><path class="cls-2" d="M247.48,0,400,152.52H280A32.54,32.54,0,0,1,247.48,120Z"/><path class="cls-3" d="M119.33,337.2a4.79,4.79,0,0,1,3.45-8.13,4.49,4.49,0,0,1,3.45,1.72c4.67,6.41,9.72,9.73,17.72,9.73,9.73,0,16.87-7,16.87-20.68V266.42a4.94,4.94,0,0,1,4.92-4.93,4.84,4.84,0,0,1,4.8,4.93v53.3c0,10.09-2.95,17.72-7.88,22.64-4.8,4.68-11.32,7.14-18.95,7.14A29,29,0,0,1,119.33,337.2Z"/><path class="cls-3" d="M190.52,339.63a4.39,4.39,0,0,1-1.85-3.7,4.71,4.71,0,0,1,4.68-4.8,4.27,4.27,0,0,1,3,1.11c8.13,6.89,16.25,10.22,27.21,10.22,11.57,0,19.2-6.16,19.2-14.65v-.25c0-8-4.31-12.55-22.4-16.37-19.82-4.31-28.93-10.71-28.93-24.86v-.25c0-13.54,11.94-23.51,28.31-23.51,11.33,0,19.57,2.83,27.45,8.49a5,5,0,0,1,2.09,3.94,4.67,4.67,0,0,1-4.67,4.68,4.61,4.61,0,0,1-2.84-.86c-7.26-5.29-14.27-7.51-22.28-7.51-11.2,0-18.34,6.15-18.34,13.91v.24c0,8.13,4.44,12.68,23.39,16.75,19.2,4.18,28.07,11.2,28.07,24.37v.24c0,14.78-12.31,24.38-29.42,24.38C210.58,351.2,200.12,347.26,190.52,339.63Z"/></svg>