<svg id="Layer_1" data-name="Layer 1" xmlns="http://www.w3.org/2000/svg" viewBox="0 0 400 556.36"><defs><style>.cls-1{fill:#fcd700;}.cls-2{fill:#f3a01e;}.cls-3{fill:#f7faf7;}</style></defs><polygon class="cls-1" points="247.49 0 0 0 0 556.36 400 556.36 400 152.52 247.49 0"/><path class="cls-2" d="M0,225.14V385.41l.75,0H369.43V225.12H.75Z"/><path class="cls-2" d="M247.48,0,400,152.52H280A32.54,32.54,0,0,1,247.48,120Z"/><path class="cls-3" d="M63.85,337.93A4.38,4.38,0,0,1,62,334.24a4.7,4.7,0,0,1,4.67-4.8,4.29,4.29,0,0,1,3,1.11c8.12,6.89,16.25,10.21,27.2,10.21,11.57,0,19.21-6.15,19.21-14.64v-.25c0-8-4.31-12.56-22.41-16.37-19.82-4.31-28.92-10.71-28.92-24.87v-.24c0-13.54,11.94-23.51,28.31-23.51,11.32,0,19.57,2.83,27.45,8.49a5,5,0,0,1,2.09,3.94,4.68,4.68,0,0,1-4.68,4.68,4.57,4.57,0,0,1-2.83-.86c-7.26-5.3-14.28-7.51-22.28-7.51-11.2,0-18.34,6.15-18.34,13.91v.24c0,8.13,4.43,12.68,23.39,16.74,19.2,4.19,28.06,11.2,28.06,24.38v.24c0,14.77-12.31,24.37-29.42,24.37A50.31,50.31,0,0,1,63.85,337.93Z"/><path class="cls-3" d="M168.86,314.42l-32-44.8a6.4,6.4,0,0,1-1.11-3.33,5,5,0,0,1,5-4.8c2.09,0,3.45,1.23,4.68,3l28.43,41,28.68-41c1.24-1.73,2.47-3,4.56-3a4.81,4.81,0,0,1,4.8,4.8,7.49,7.49,0,0,1-1.35,3.57L178.7,314.18V344a4.92,4.92,0,0,1-9.84,0Z"/><path class="cls-3" d="M222.65,337.93a4.38,4.38,0,0,1-1.84-3.69,4.7,4.7,0,0,1,4.67-4.8,4.29,4.29,0,0,1,3,1.11c8.12,6.89,16.25,10.21,27.2,10.21,11.57,0,19.2-6.15,19.2-14.64v-.25c0-8-4.3-12.56-22.4-16.37-19.82-4.31-28.93-10.71-28.93-24.87v-.24c0-13.54,11.94-23.51,28.32-23.51,11.32,0,19.57,2.83,27.45,8.49a5,5,0,0,1,2.09,3.94,4.68,4.68,0,0,1-4.68,4.68,4.57,4.57,0,0,1-2.83-.86c-7.26-5.3-14.28-7.51-22.28-7.51-11.2,0-18.34,6.15-18.34,13.91v.24c0,8.13,4.43,12.68,23.39,16.74,19.2,4.19,28.06,11.2,28.06,24.38v.24c0,14.77-12.31,24.37-29.42,24.37A50.31,50.31,0,0,1,222.65,337.93Z"/></svg>