<svg id="Layer_1" data-name="Layer 1" xmlns="http://www.w3.org/2000/svg" viewBox="0 0 400 556.36"><defs><style>.cls-1{fill:#8386f5;}.cls-2{fill:#3d43b4;}.cls-3{fill:#ddd;}</style></defs><polygon class="cls-1" points="247.49 0 0 0 0 556.36 400 556.36 400 152.51 247.49 0"/><path class="cls-2" d="M0,225.14V385.41l.75,0H369.43V225.12H.75Z"/><path class="cls-2" d="M247.48,0,400,152.52H280A32.54,32.54,0,0,1,247.48,120Z"/><path class="cls-3" d="M49.87,341l35-76.44c1.23-2.71,3.07-4.31,6.15-4.31h.49c3,0,4.93,1.6,6,4.31l35,76.31a6.6,6.6,0,0,1,.62,2.46A4.67,4.67,0,0,1,128.4,348a5.3,5.3,0,0,1-4.8-3.57l-9-19.82H67.35l-9,20.07A4.87,4.87,0,0,1,53.68,348a4.41,4.41,0,0,1-4.43-4.43A5.61,5.61,0,0,1,49.87,341Zm60.93-25.24L91,271.65,71.16,315.72Z"/><path class="cls-3" d="M152.46,267a4.91,4.91,0,0,1,4.8-4.92h27.45c19.45,0,32.25,10.34,32.25,27.32v.25c0,18.59-15.51,28.19-33.85,28.19H162.19V344a4.87,4.87,0,1,1-9.73,0Zm31,42c14.28,0,23.64-7.64,23.64-19v-.25c0-12.31-9.24-18.71-23.14-18.71H162.19V309Z"/><path class="cls-3" d="M232.89,267a4.91,4.91,0,0,1,4.8-4.92h27.45c19.45,0,32.25,10.34,32.25,27.32v.25c0,18.59-15.51,28.19-33.85,28.19H242.61V344a4.86,4.86,0,1,1-9.72,0Zm31,42c14.28,0,23.63-7.64,23.63-19v-.25c0-12.31-9.23-18.71-23.14-18.71H242.61V309Z"/></svg>