<svg id="Layer_1" data-name="Layer 1" xmlns="http://www.w3.org/2000/svg" viewBox="0 0 450 450"><defs><style>.cls-1{fill:#fff;}.cls-2{fill:#171515;}</style></defs><path class="cls-1" d="M418.41,241.48C418.41,365.74,349.26,450,225,450S20.6,365.74,20.6,241.48,95.24,31.59,219.51,31.59,418.41,117.21,418.41,241.48Z"/><path class="cls-2" d="M225,0C100.76,0,0,101,0,225.56a225.56,225.56,0,0,0,153.88,214c11.23,2.09,14.87-4.91,14.87-10.84v-42c-62.59,13.65-75.62-26.61-75.62-26.61-10.24-26.07-25-33-25-33-20.42-14,1.55-13.7,1.55-13.7,22.6,1.58,34.48,23.25,34.48,23.25,20.07,34.47,52.64,24.51,65.48,18.74,2-14.57,7.84-24.53,14.29-30.15C134,319.55,81.43,300.2,81.43,213.79c0-24.64,8.79-44.75,23.18-60.54-2.33-5.7-10-28.65,2.19-59.7,0,0,18.9-6,61.89,23.12a212.86,212.86,0,0,1,112.67,0c43-29.17,61.82-23.12,61.82-23.12,12.24,31.07,4.54,54,2.21,59.7,14.44,15.79,23.16,35.92,23.16,60.54,0,86.64-52.63,105.72-102.73,111.3,8.06,7,15.43,20.71,15.43,41.77v61.9c0,6,3.6,13,15,10.82A225.58,225.58,0,0,0,450,225.56C450,101,349.26,0,225,0Z"/></svg>