<svg id="Layer_1" data-name="Layer 1" xmlns="http://www.w3.org/2000/svg" viewBox="0 0 450 450"><defs><style>.cls-1{fill:#fff;}.cls-2{fill:#0067ff;}</style></defs><rect class="cls-1" x="47.34" y="82.82" width="351.65" height="278.02"/><path class="cls-2" d="M154.27,281.44H112.5V243.75h42.39C190.11,243.75,192.45,281.44,154.27,281.44ZM281,231.24h56.58C335.38,199.09,286.39,194.17,281,231.24ZM153.41,168.75H112.5v37.5h44.79C188.66,206.25,193.61,168.75,153.41,168.75ZM450,93.75v262.5A93.75,93.75,0,0,1,356.25,450H93.75A93.75,93.75,0,0,1,0,356.25V93.75A93.75,93.75,0,0,1,93.75,0h262.5A93.75,93.75,0,0,1,450,93.75ZM262.5,150h93.75V131.25H262.5Zm-66.6,67.84c35.76-18.26,34.44-85.32-34-86.33H75V318.6h80.83C240.62,318.6,239.18,233.59,195.9,217.84Zm177.88,11.29c-5.14-33.06-28.65-55.32-67.18-55.32-39.26,0-62.85,25.13-62.85,74,0,49.33,25.63,70.93,64.05,70.93s58.24-21.28,63.75-37.5H332c-13.8,16-54.24,9.77-51.88-25.37H375C375.15,244,374.74,235.46,373.78,229.13Z"/></svg>