<svg id="Layer_1" data-name="Layer 1" xmlns="http://www.w3.org/2000/svg" viewBox="0 0 450 450"><defs><style>.cls-1{fill:#fff;}.cls-2{fill:#0077b5;}</style></defs><rect class="cls-1" x="50.27" y="32.14" width="350.55" height="350.55"/><path class="cls-2" d="M356.25,0H93.75A93.76,93.76,0,0,0,0,93.75v262.5A93.76,93.76,0,0,0,93.75,450h262.5A93.75,93.75,0,0,0,450,356.25V93.75A93.75,93.75,0,0,0,356.25,0ZM150,356.25H93.75V150H150Zm-28.12-230a33.08,33.08,0,1,1,32.81-33.08A33,33,0,0,1,121.88,126.23ZM375,356.25H318.75V251.17c0-63.15-75-58.36-75,0V356.25H187.5V150h56.25v33.09C269.92,134.61,375,131,375,229.52Z"/></svg>