<svg id="Layer_1" data-name="Layer 1" xmlns="http://www.w3.org/2000/svg" viewBox="0 0 400 556.36"><defs><style>.cls-1{fill:#f887ff;}.cls-2{fill:#de004e;}.cls-3{fill:#ddd;}</style></defs><polygon class="cls-1" points="247.49 0 0 0 0 556.36 400 556.36 400 152.51 247.49 0"/><path class="cls-2" d="M0,225.14V385.41l.75,0H369.43V225.12H.75Z"/><path class="cls-2" d="M247.48,0,400,152.52H280A32.54,32.54,0,0,1,247.48,120Z"/><path class="cls-3" d="M108.3,265.32a4.87,4.87,0,1,1,9.73,0v77.54a4.87,4.87,0,1,1-9.73,0Z"/><path class="cls-3" d="M137.31,265.2a4.88,4.88,0,0,1,4.8-4.8h1.11a5.31,5.31,0,0,1,4.55,2.58l30.77,46.28L209.32,263a5.2,5.2,0,0,1,4.55-2.58H215a4.89,4.89,0,0,1,4.8,4.8v77.42a4.91,4.91,0,0,1-4.8,4.92,5,5,0,0,1-4.92-4.92V278.37l-27.58,40.49a4.76,4.76,0,0,1-4.06,2.47,5,5,0,0,1-4.18-2.47l-27.45-40.37v64.25a4.74,4.74,0,1,1-9.48,0Z"/><path class="cls-3" d="M240.89,266.36a4.86,4.86,0,1,1,9.72,0v72.87H295.3a4.52,4.52,0,0,1,4.43,4.56,4.41,4.41,0,0,1-4.43,4.43H245.69a4.91,4.91,0,0,1-4.8-4.93Z"/></svg>